<svg version="1.2" baseProfile="tiny-ps" xmlns="http://www.w3.org/2000/svg" viewBox="0 0 15 15" width="15" height="15">
	<title>Group 1</title>
	<style>
		tspan { white-space:pre }
		.shp0 { fill: #ff4900 } 
	</style>
	<g id="Group 1">
		<g id="Free Hosting Features">
			<g id="Left Side">
				<path id="Checkmark" class="shp0" d="M14 3.73C13.32 2.59 12.41 1.68 11.27 1C10.12 0.33 8.86 0 7.5 0C6.14 0 4.88 0.33 3.73 1C2.59 1.68 1.68 2.59 1.01 3.73C0.33 4.88 0 6.14 0 7.5C0 8.86 0.33 10.12 1 11.27C1.68 12.41 2.59 13.32 3.73 13.99C4.88 14.67 6.14 15 7.5 15C8.86 15 10.12 14.67 11.27 13.99C12.41 13.32 13.32 12.41 14 11.27C14.67 10.12 15 8.86 15 7.5C15 6.14 14.67 4.88 14 3.73ZM12.36 6.36L7.06 11.66C6.94 11.78 6.79 11.85 6.61 11.85C6.44 11.85 6.3 11.78 6.17 11.66L2.64 8.13C2.52 8.01 2.46 7.86 2.46 7.69C2.46 7.5 2.52 7.35 2.64 7.24L3.52 6.36C3.65 6.23 3.79 6.17 3.96 6.17C4.13 6.17 4.28 6.23 4.4 6.36L6.61 8.56L10.6 4.59C10.72 4.47 10.87 4.4 11.04 4.4C11.2 4.4 11.35 4.47 11.48 4.59L12.36 5.47C12.48 5.59 12.54 5.74 12.54 5.92C12.54 6.09 12.48 6.24 12.36 6.36Z" />
			</g>
		</g>
	</g>
</svg>